999
Externe Test-DXF (Millimeter) mit typischer CAD-Geometrie
0
SECTION
2
HEADER
9
$ACADVER
1
AC1015
9
$INSUNITS
70
4
0
ENDSEC
0
SECTION
2
BLOCKS
0
BLOCK
8
0
2
QUAD
70
0
10
0.0
20
0.0
30
0.0
3
QUAD
1

0
LINE
8
BLOCKLAYER
62
1
10
0.0
20
0.0
30
0.0
11
100.0
21
0.0
31
0.0
0
ENDBLK
8
0
0
ENDSEC
0
SECTION
2
ENTITIES
0
LINE
8
LINIEN
62
1
10
0.0
20
0.0
30
0.0
11
2000.0
21
0.0
31
0.0
0
LWPOLYLINE
8
OFFEN
62
3
90
3
70
0
10
0.0
20
1000.0
10
1000.0
20
1000.0
10
1000.0
20
1500.0
0
LWPOLYLINE
8
BOGEN
62
5
90
2
70
0
10
0.0
20
2000.0
42
1.0
10
1000.0
20
2000.0
0
ARC
8
BOEGEN
62
2
10
3000.0
20
0.0
30
0.0
40
500.0
50
0.0
51
90.0
0
CIRCLE
8
KREISE
62
4
10
5000.0
20
0.0
30
0.0
40
250.0
0
TEXT
8
BESCHRIFTUNG
62
7
10
0.0
20
3000.0
30
0.0
40
200.0
1
Beispieltext
0
MTEXT
8
BESCHRIFTUNG
62
7
10
0.0
20
3500.0
30
0.0
40
150.0
1
Mehrzeiliger Text
0
INSERT
8
BLOECKE
2
QUAD
10
500.0
20
500.0
30
0.0
41
2.0
42
2.0
43
1.0
50
90.0
0
ENDSEC
0
EOF
