999
Externe Test-DXF (Millimeter) mit SOLID-HATCH inklusive Loch
0
SECTION
2
HEADER
9
$ACADVER
1
AC1015
9
$INSUNITS
70
4
0
ENDSEC
0
SECTION
2
ENTITIES
0
HATCH
8
FLAECHEN
62
1
100
AcDbHatch
10
0.0
20
0.0
30
0.0
210
0.0
220
0.0
230
1.0
2
SOLID
70
1
71
0
91
2
92
1
72
1
73
1
93
4
10
0.0
20
0.0
42
0.0
10
2000.0
20
0.0
42
0.0
10
2000.0
20
1000.0
42
0.0
10
0.0
20
1000.0
42
0.0
97
0
92
16
72
1
73
1
93
4
10
500.0
20
250.0
42
0.0
10
1500.0
20
250.0
42
0.0
10
1500.0
20
750.0
42
0.0
10
500.0
20
750.0
42
0.0
97
0
75
0
76
1
98
0
0
ENDSEC
0
EOF
