999
Externe Test-DXF mit nicht verlustfrei uebernehmbaren Elementen
0
SECTION
2
HEADER
9
$ACADVER
1
AC1015
9
$INSUNITS
70
4
0
ENDSEC
0
SECTION
2
ENTITIES
0
ELLIPSE
8
KURVEN
62
4
10
0.0
20
0.0
30
0.0
11
1000.0
21
0.0
31
0.0
40
0.5
41
0.0
42
6.283185307179586
0
SPLINE
8
KURVEN
62
5
70
8
71
3
72
8
73
4
74
0
40
0.0
40
0.0
40
0.0
40
0.0
40
1.0
40
1.0
40
1.0
40
1.0
10
0.0
20
2000.0
30
0.0
10
500.0
20
2500.0
30
0.0
10
1000.0
20
1500.0
30
0.0
10
1500.0
20
2000.0
30
0.0
0
POINT
8
PUNKTE
10
100.0
20
100.0
30
0.0
0
ENDSEC
0
EOF
